<?xml version="1.0" encoding="UTF-8"?>
<svg xmlns="http://www.w3.org/2000/svg" viewBox="0 0 1200 640" font-family="-apple-system, BlinkMacSystemFont, 'Segoe UI', Helvetica, Arial, sans-serif">
<defs>
<linearGradient id="bar" x1="0" y1="0" x2="0" y2="1"><stop offset="0%" stop-color="#f5b942"/><stop offset="100%" stop-color="#d66200"/></linearGradient>
<linearGradient id="barPeak" x1="0" y1="0" x2="0" y2="1"><stop offset="0%" stop-color="#ff6b35"/><stop offset="100%" stop-color="#b02a1f"/></linearGradient>
</defs>
<rect width="1200" height="640" fill="#faf7f2"/>
<text x="80" y="52" font-family="Georgia, serif" font-size="30" font-weight="bold" fill="#1a1a1a">HelioChronicles</text>
<text x="80" y="78" font-size="13" fill="#555">The known history of the Sun — from chronicle aurora to measured cycles</text>
<text x="80" y="118" font-size="12" font-weight="600" fill="#333">Historical evidence · chronicles and reconstructions</text>
<text x="1140" y="118" font-size="11" fill="#888" text-anchor="end">1000 BCE → 1755 CE</text>
<rect x="80" y="140" width="1060" height="110" fill="#f3ede2"/>
<rect x="853.4" y="140" width="15.4" height="110" fill="#2c3e50" opacity="0.14"><title>Oort Minimum (1010–1050)</title></rect>
<rect x="957.2" y="140" width="26.9" height="110" fill="#2c3e50" opacity="0.14"><title>Wolf Minimum (1280–1350)</title></rect>
<rect x="1026.5" y="140" width="34.6" height="110" fill="#2c3e50" opacity="0.14"><title>Spörer Minimum (1460–1550)</title></rect>
<rect x="1097.7" y="140" width="26.9" height="110" fill="#2c3e50" opacity="0.14"><title>Maunder Minimum (1645–1715)</title></rect>
<circle cx="88.8" cy="164" r="2.6" fill="none" stroke="#1a5490" stroke-width="1"><title>Central Plains, China · 977 BCE</title></circle>
<circle cx="210.8" cy="164" r="3.2" fill="#1a5490" stroke="#1a5490" stroke-width="0"><title>Nineveh, Neo-Assyrian Empire (modern northern Iraq) · 660 BCE</title></circle>
<circle cx="285.1" cy="164" r="2.6" fill="none" stroke="#1a5490" stroke-width="1"><title>Greek Aegean · 467 BCE</title></circle>
<circle cx="479.0" cy="164" r="2.6" fill="none" stroke="#1a5490" stroke-width="1"><title>Ostia, Roman Empire · 37 CE</title></circle>
<circle cx="703.3" cy="164" r="3.2" fill="#1a5490" stroke="#1a5490" stroke-width="0"><title>Asuka, Yamato (modern Nara, Japan) · 620 CE</title></circle>
<circle cx="763.3" cy="164" r="3.2" fill="#1a5490" stroke="#1a5490" stroke-width="0"><title>British Isles · 776 CE</title></circle>
<circle cx="853.7" cy="164" r="3.2" fill="#1a5490" stroke="#1a5490" stroke-width="0"><title>Kaifeng, Northern Song (modern Henan, China) · 1011 CE</title></circle>
<circle cx="923.4" cy="164" r="3.2" fill="#1a5490" stroke="#1a5490" stroke-width="0"><title>St Albans, England · 1192 CE</title></circle>
<circle cx="1004.2" cy="164" r="3.2" fill="#1a5490" stroke="#1a5490" stroke-width="0"><title>Hanseong (modern Seoul), Joseon · 1402 CE</title></circle>
<circle cx="1072.7" cy="164" r="3.2" fill="#1a5490" stroke="#1a5490" stroke-width="0"><title>Hven (Uranienborg), Denmark · 1580 CE</title></circle>
<circle cx="1125.0" cy="164" r="3.2" fill="#1a5490" stroke="#1a5490" stroke-width="0"><title>London, England · 1716 CE</title></circle>
<line x1="80" y1="250" x2="1140" y2="250" stroke="#333" stroke-width="1"/>
<line x1="80.0" y1="250" x2="80.0" y2="255.0" stroke="#333" stroke-width="0.8"/>
<text x="80.0" y="268" font-size="10" text-anchor="middle" fill="#444">1000 BCE</text>
<line x1="272.4" y1="250" x2="272.4" y2="255.0" stroke="#333" stroke-width="0.8"/>
<text x="272.4" y="268" font-size="10" text-anchor="middle" fill="#444">500 BCE</text>
<line x1="464.8" y1="250" x2="464.8" y2="255.0" stroke="#333" stroke-width="0.8"/>
<text x="464.8" y="268" font-size="10" text-anchor="middle" fill="#444">1 CE</text>
<line x1="657.1" y1="250" x2="657.1" y2="255.0" stroke="#333" stroke-width="0.8"/>
<text x="657.1" y="268" font-size="10" text-anchor="middle" fill="#444">500 CE</text>
<line x1="849.5" y1="250" x2="849.5" y2="255.0" stroke="#333" stroke-width="0.8"/>
<text x="849.5" y="268" font-size="10" text-anchor="middle" fill="#444">1000 CE</text>
<line x1="1041.9" y1="250" x2="1041.9" y2="255.0" stroke="#333" stroke-width="0.8"/>
<text x="1041.9" y="268" font-size="10" text-anchor="middle" fill="#444">1500 CE</text>
<circle cx="84" cy="285" r="3.2" fill="#1a5490"/>
<text x="94" y="288" font-size="10" fill="#555">11 aurora observations</text>
<rect x="280" y="279" width="12" height="10" fill="#2c3e50" opacity="0.14"/>
<text x="298" y="288" font-size="10" fill="#555">grand minima (Oort · Wolf · Spörer · Maunder)</text>
<line x1="80" y1="310" x2="1140" y2="310" stroke="#c9b89b" stroke-width="0.8"/>
<rect x="470.0" y="312.0" width="260" height="16" fill="#faf7f2"/>
<text x="600" y="324" font-size="11" text-anchor="middle" fill="#7a5c2e" letter-spacing="0.5">1755 · NUMBERED SOLAR CYCLES BEGIN</text>
<text x="80" y="352" font-size="12" font-weight="600" fill="#333">Instrumental era · 25 numbered cycles</text>
<text x="1140" y="352" font-size="11" fill="#888" text-anchor="end">1755 → today · peak SSN (smoothed V2.0)</text>
<rect x="80" y="370" width="1060" height="178" fill="#fbf8f2"/>
<line x1="80" y1="490.6" x2="1140" y2="490.6" stroke="#cfc4ae" stroke-width="0.5" stroke-dasharray="2,4"/>
<text x="70" y="494.6" font-size="10" text-anchor="end" fill="#666">100</text>
<line x1="80" y1="433.2" x2="1140" y2="433.2" stroke="#cfc4ae" stroke-width="0.5" stroke-dasharray="2,4"/>
<text x="70" y="437.2" font-size="10" text-anchor="end" fill="#666">200</text>
<line x1="80" y1="375.7" x2="1140" y2="375.7" stroke="#cfc4ae" stroke-width="0.5" stroke-dasharray="2,4"/>
<text x="70" y="379.7" font-size="10" text-anchor="end" fill="#666">300</text>
<rect x="214.9" y="370" width="154.2" height="178" fill="#2c3e50" opacity="0.06"><title>Dalton Minimum (1790–1830)</title></rect>
<rect x="81.0" y="465.3" width="42.7" height="82.7" fill="url(#bar)" opacity="0.9"><title>SC1 (1755-02–1766-06) · peak SSN 144</title></rect>
<rect x="124.7" y="437.2" width="33.7" height="110.8" fill="url(#bar)" opacity="0.9"><title>SC2 (1766-06–1775-06) · peak SSN 193</title></rect>
<rect x="159.4" y="396.2" width="34.7" height="151.8" fill="url(#bar)" opacity="0.9"><title>SC3 (1775-06–1784-09) · peak SSN 264</title></rect>
<rect x="195.0" y="412.9" width="51.7" height="135.1" fill="url(#bar)" opacity="0.9"><title>SC4 (1784-09–1798-05) · peak SSN 235</title></rect>
<rect x="247.7" y="500.9" width="46.2" height="47.1" fill="url(#bar)" opacity="0.9"><title>SC5 (1798-05–1810-08) · peak SSN 82</title></rect>
<rect x="294.9" y="501.4" width="48.1" height="46.6" fill="url(#bar)" opacity="0.9"><title>SC6 (1810-08–1823-05) · peak SSN 81</title></rect>
<rect x="344.1" y="479.6" width="39.5" height="68.4" fill="url(#bar)" opacity="0.9"><title>SC7 (1823-05–1833-11) · peak SSN 119</title></rect>
<rect x="384.5" y="407.4" width="36.3" height="140.6" fill="url(#bar)" opacity="0.9"><title>SC8 (1833-11–1843-07) · peak SSN 245</title></rect>
<rect x="421.8" y="421.7" width="46.9" height="126.3" fill="url(#bar)" opacity="0.9"><title>SC9 (1843-07–1855-12) · peak SSN 220</title></rect>
<rect x="469.6" y="441.1" width="42.4" height="106.9" fill="url(#bar)" opacity="0.9"><title>SC10 (1855-12–1867-03) · peak SSN 186</title></rect>
<rect x="513.0" y="413.6" width="44.3" height="134.4" fill="url(#bar)" opacity="0.9"><title>SC11 (1867-03–1878-12) · peak SSN 234</title></rect>
<rect x="558.3" y="476.6" width="42.4" height="71.4" fill="url(#bar)" opacity="0.9"><title>SC12 (1878-12–1890-03) · peak SSN 124</title></rect>
<rect x="601.7" y="463.9" width="44.6" height="84.1" fill="url(#bar)" opacity="0.9"><title>SC13 (1890-03–1902-01) · peak SSN 147</title></rect>
<rect x="647.3" y="486.5" width="43.3" height="61.5" fill="url(#bar)" opacity="0.9"><title>SC14 (1902-01–1913-07) · peak SSN 107</title></rect>
<rect x="691.6" y="447.1" width="37.5" height="100.9" fill="url(#bar)" opacity="0.9"><title>SC15 (1913-07–1923-07) · peak SSN 176</title></rect>
<rect x="730.2" y="473.2" width="38.2" height="74.8" fill="url(#bar)" opacity="0.9"><title>SC16 (1923-07–1933-09) · peak SSN 130</title></rect>
<rect x="769.3" y="434.0" width="39.2" height="114.0" fill="url(#bar)" opacity="0.9"><title>SC17 (1933-09–1944-02) · peak SSN 199</title></rect>
<rect x="809.5" y="422.4" width="38.2" height="125.6" fill="url(#bar)" opacity="0.9"><title>SC18 (1944-02–1954-04) · peak SSN 219</title></rect>
<rect x="848.7" y="384.4" width="39.5" height="163.6" fill="url(#barPeak)" opacity="0.9"><title>SC19 (1954-04–1964-10) · peak SSN 285</title></rect>
<rect x="889.2" y="458.1" width="44.0" height="89.9" fill="url(#bar)" opacity="0.9"><title>SC20 (1964-10–1976-06) · peak SSN 157</title></rect>
<rect x="934.1" y="414.3" width="38.5" height="133.7" fill="url(#bar)" opacity="0.9"><title>SC21 (1976-06–1986-09) · peak SSN 233</title></rect>
<rect x="973.6" y="426.0" width="37.2" height="122.0" fill="url(#bar)" opacity="0.9"><title>SC22 (1986-09–1996-08) · peak SSN 213</title></rect>
<rect x="1011.9" y="444.5" width="46.5" height="103.5" fill="url(#bar)" opacity="0.9"><title>SC23 (1996-08–2008-12) · peak SSN 180</title></rect>
<rect x="1059.4" y="481.2" width="41.4" height="66.8" fill="url(#bar)" opacity="0.9"><title>SC24 (2008-12–2019-12) · peak SSN 116</title></rect>
<rect x="1101.8" y="455.3" width="28.6" height="92.7" fill="url(#bar)" opacity="0.55"><title>SC25 (2019-12–ongoing) · peak SSN 162</title></rect>
<line x1="80" y1="548" x2="1140" y2="548" stroke="#333" stroke-width="1"/>
<line x1="253.5" y1="548" x2="253.5" y2="553.0" stroke="#333" stroke-width="0.8"/>
<text x="253.5" y="566" font-size="10" text-anchor="middle" fill="#444">1800</text>
<line x1="446.2" y1="548" x2="446.2" y2="553.0" stroke="#333" stroke-width="0.8"/>
<text x="446.2" y="566" font-size="10" text-anchor="middle" fill="#444">1850</text>
<line x1="638.9" y1="548" x2="638.9" y2="553.0" stroke="#333" stroke-width="0.8"/>
<text x="638.9" y="566" font-size="10" text-anchor="middle" fill="#444">1900</text>
<line x1="831.6" y1="548" x2="831.6" y2="553.0" stroke="#333" stroke-width="0.8"/>
<text x="831.6" y="566" font-size="10" text-anchor="middle" fill="#444">1950</text>
<line x1="1024.4" y1="548" x2="1024.4" y2="553.0" stroke="#333" stroke-width="0.8"/>
<text x="1024.4" y="566" font-size="10" text-anchor="middle" fill="#444">2000</text>
<circle cx="483.4" cy="586" r="4" fill="#b02a1f" opacity="0.9"><title>Carrington Event (1859-09-01)</title></circle>
<circle cx="531.3" cy="586" r="4" fill="#b02a1f" opacity="0.9"><title>Great Magnetic Storm of February 1872 (1872-02-04)</title></circle>
<circle cx="721.2" cy="586" r="4" fill="#b02a1f" opacity="0.9"><title>New York Railroad Storm (1921-05-13)</title></circle>
<circle cx="794.0" cy="586" r="3" fill="#888" opacity="0.9"><title>Easter Sunday Storm (1940-03-24)</title></circle>
<circle cx="855.3" cy="586" r="3" fill="#888" opacity="0.9"><title>23 February 1956 Ground-Level Enhancement (1956-02-23)</title></circle>
<circle cx="918.7" cy="586" r="3" fill="#888" opacity="0.9"><title>August 1972 Event (1972-08-02)</title></circle>
<circle cx="982.7" cy="586" r="3" fill="#888" opacity="0.9"><title>Quebec Blackout Storm (1989-03-10)</title></circle>
<circle cx="1026.4" cy="586" r="3" fill="#888" opacity="0.9"><title>Bastille Day Event (2000-07-14)</title></circle>
<circle cx="1039.0" cy="586" r="3" fill="#888" opacity="0.9"><title>Halloween Storms (2003-10-19)</title></circle>
<circle cx="1046.3" cy="586" r="3" fill="#888" opacity="0.9"><title>September 2005 X17 Flare Series (2005-09-07)</title></circle>
<circle cx="1072.8" cy="586" r="4" fill="#b02a1f" opacity="0.9"><title>July 2012 Near-Miss CME (2012-07-23)</title></circle>
<circle cx="1092.5" cy="586" r="3" fill="#888" opacity="0.9"><title>September 2017 Flares and Storm (2017-09-06)</title></circle>
<circle cx="1118.2" cy="586" r="3" fill="#888" opacity="0.9"><title>Gannon Storm (Mother's Day Storm) (2024-05-10)</title></circle>
<circle cx="1119.9" cy="586" r="3" fill="#888" opacity="0.9"><title>October 2024 G4 Storm (2024-10-10)</title></circle>
<rect x="84" y="599" width="12" height="10" fill="url(#bar)"/>
<text x="100" y="608" font-size="10" fill="#555">25 solar cycles (SC19 highlighted: peak SSN 285, 1957)</text>
<circle cx="510" cy="605" r="3.5" fill="#b02a1f"/>
<text x="520" y="608" font-size="10" fill="#555">14 major storms (1859 → 2024)</text>
</svg>
