<?xml version="1.0" encoding="UTF-8"?>
<svg xmlns="http://www.w3.org/2000/svg" viewBox="0 0 1200 600" font-family="-apple-system, BlinkMacSystemFont, 'Segoe UI', Helvetica, Arial, sans-serif">
<defs>
<linearGradient id="solar" x1="0" y1="0" x2="0" y2="1"><stop offset="0%" stop-color="#f5b942"/><stop offset="100%" stop-color="#d66200"/></linearGradient>
<linearGradient id="solar-peak" x1="0" y1="0" x2="0" y2="1"><stop offset="0%" stop-color="#ff6b35"/><stop offset="100%" stop-color="#c0392b"/></linearGradient>
</defs>
<rect width="1200" height="600" fill="#faf7f2"/>
<text x="70" y="50" font-family="Georgia, serif" font-size="34" font-weight="bold" fill="#1a1a1a">HelioChronicles</text>
<text x="70" y="78" font-size="15" fill="#555">The known history of the Sun — 25 numbered cycles since 1755, with grand minima and major storms in context</text>
<rect x="160.0" y="110" width="180.0" height="380" fill="#555" opacity="0.08"/>
<text x="250.0" y="128" font-size="11" text-anchor="middle" fill="#777" font-style="italic">Maunder Minimum</text>
<rect x="532.9" y="110" width="102.9" height="380" fill="#555" opacity="0.08"/>
<text x="584.3" y="128" font-size="11" text-anchor="middle" fill="#777" font-style="italic">Dalton Minimum</text>
<rect x="790.0" y="110" width="77.1" height="380" fill="#555" opacity="0.08"/>
<line x1="70" y1="490" x2="1150" y2="490" stroke="#333" stroke-width="1"/>
<line x1="301.4" y1="490" x2="301.4" y2="496" stroke="#333" stroke-width="1"/>
<text x="301.4" y="512" font-size="11" text-anchor="middle" fill="#333">1700</text>
<line x1="430.0" y1="490" x2="430.0" y2="496" stroke="#333" stroke-width="1"/>
<text x="430.0" y="512" font-size="11" text-anchor="middle" fill="#333">1750</text>
<line x1="558.6" y1="490" x2="558.6" y2="496" stroke="#333" stroke-width="1"/>
<text x="558.6" y="512" font-size="11" text-anchor="middle" fill="#333">1800</text>
<line x1="687.1" y1="490" x2="687.1" y2="496" stroke="#333" stroke-width="1"/>
<text x="687.1" y="512" font-size="11" text-anchor="middle" fill="#333">1850</text>
<line x1="815.7" y1="490" x2="815.7" y2="496" stroke="#333" stroke-width="1"/>
<text x="815.7" y="512" font-size="11" text-anchor="middle" fill="#333">1900</text>
<line x1="944.3" y1="490" x2="944.3" y2="496" stroke="#333" stroke-width="1"/>
<text x="944.3" y="512" font-size="11" text-anchor="middle" fill="#333">1950</text>
<line x1="1072.9" y1="490" x2="1072.9" y2="496" stroke="#333" stroke-width="1"/>
<text x="1072.9" y="512" font-size="11" text-anchor="middle" fill="#333">2000</text>
<line x1="70" y1="110" x2="70" y2="490" stroke="#333" stroke-width="1"/>
<line x1="64" y1="490.0" x2="70" y2="490.0" stroke="#333" stroke-width="1"/>
<text x="60" y="494.0" font-size="11" text-anchor="end" fill="#333">0</text>
<line x1="64" y1="363.3" x2="70" y2="363.3" stroke="#333" stroke-width="1"/>
<text x="60" y="367.3" font-size="11" text-anchor="end" fill="#333">100</text>
<line x1="70" y1="363.3" x2="1150.0" y2="363.3" stroke="#333" stroke-width="0.5" opacity="0.15" stroke-dasharray="2,3"/>
<line x1="64" y1="236.7" x2="70" y2="236.7" stroke="#333" stroke-width="1"/>
<text x="60" y="240.7" font-size="11" text-anchor="end" fill="#333">200</text>
<line x1="70" y1="236.7" x2="1150.0" y2="236.7" stroke="#333" stroke-width="0.5" opacity="0.15" stroke-dasharray="2,3"/>
<line x1="64" y1="110.0" x2="70" y2="110.0" stroke="#333" stroke-width="1"/>
<text x="60" y="114.0" font-size="11" text-anchor="end" fill="#333">300</text>
<line x1="70" y1="110.0" x2="1150.0" y2="110.0" stroke="#333" stroke-width="0.5" opacity="0.15" stroke-dasharray="2,3"/>
<text x="25" y="300.0" font-size="12" fill="#555" transform="rotate(-90 25 300.0)" text-anchor="middle">Peak SSN (smoothed)</text>
<rect x="443.2" y="307.5" width="29.1" height="182.5" fill="url(#solar)" stroke="#faf7f2" stroke-width="1" opacity="0.92"/>
<text x="457.7" y="302.5" font-size="10" text-anchor="middle" fill="#555" font-weight="normal">1</text>
<rect x="472.3" y="245.5" width="23.1" height="244.5" fill="url(#solar)" stroke="#faf7f2" stroke-width="1" opacity="0.92"/>
<text x="483.9" y="240.5" font-size="10" text-anchor="middle" fill="#555" font-weight="normal">2</text>
<rect x="495.5" y="155.2" width="23.8" height="334.8" fill="url(#solar)" stroke="#faf7f2" stroke-width="1" opacity="0.92"/>
<text x="507.4" y="150.2" font-size="10" text-anchor="middle" fill="#555" font-weight="normal">3</text>
<rect x="519.2" y="192.0" width="35.1" height="298.0" fill="url(#solar)" stroke="#faf7f2" stroke-width="1" opacity="0.92"/>
<text x="536.8" y="187.0" font-size="10" text-anchor="middle" fill="#555" font-weight="normal">4</text>
<rect x="554.4" y="386.1" width="31.5" height="103.9" fill="url(#solar)" stroke="#faf7f2" stroke-width="1" opacity="0.92"/>
<rect x="585.9" y="387.1" width="32.8" height="102.9" fill="url(#solar)" stroke="#faf7f2" stroke-width="1" opacity="0.92"/>
<rect x="618.7" y="339.0" width="27.0" height="151.0" fill="url(#solar)" stroke="#faf7f2" stroke-width="1" opacity="0.92"/>
<text x="632.2" y="334.0" font-size="10" text-anchor="middle" fill="#555" font-weight="normal">7</text>
<rect x="645.7" y="179.8" width="24.9" height="310.2" fill="url(#solar)" stroke="#faf7f2" stroke-width="1" opacity="0.92"/>
<text x="658.1" y="174.8" font-size="10" text-anchor="middle" fill="#555" font-weight="normal">8</text>
<rect x="670.5" y="211.5" width="31.9" height="278.5" fill="url(#solar)" stroke="#faf7f2" stroke-width="1" opacity="0.92"/>
<text x="686.5" y="206.5" font-size="10" text-anchor="middle" fill="#555" font-weight="normal">9</text>
<rect x="702.5" y="254.1" width="28.9" height="235.9" fill="url(#solar)" stroke="#faf7f2" stroke-width="1" opacity="0.92"/>
<text x="716.9" y="249.1" font-size="10" text-anchor="middle" fill="#555" font-weight="normal">10</text>
<rect x="731.4" y="193.6" width="30.2" height="296.4" fill="url(#solar)" stroke="#faf7f2" stroke-width="1" opacity="0.92"/>
<text x="746.5" y="188.6" font-size="10" text-anchor="middle" fill="#555" font-weight="normal">11</text>
<rect x="761.6" y="332.4" width="28.9" height="157.6" fill="url(#solar)" stroke="#faf7f2" stroke-width="1" opacity="0.92"/>
<text x="776.1" y="327.4" font-size="10" text-anchor="middle" fill="#555" font-weight="normal">12</text>
<rect x="790.5" y="304.4" width="30.4" height="185.6" fill="url(#solar)" stroke="#faf7f2" stroke-width="1" opacity="0.92"/>
<text x="805.8" y="299.4" font-size="10" text-anchor="middle" fill="#555" font-weight="normal">13</text>
<rect x="821.0" y="354.3" width="29.6" height="135.7" fill="url(#solar)" stroke="#faf7f2" stroke-width="1" opacity="0.92"/>
<text x="835.8" y="349.3" font-size="10" text-anchor="middle" fill="#555" font-weight="normal">14</text>
<rect x="850.5" y="267.4" width="25.7" height="222.6" fill="url(#solar)" stroke="#faf7f2" stroke-width="1" opacity="0.92"/>
<text x="863.4" y="262.4" font-size="10" text-anchor="middle" fill="#555" font-weight="normal">15</text>
<rect x="876.3" y="325.1" width="26.1" height="164.9" fill="url(#solar)" stroke="#faf7f2" stroke-width="1" opacity="0.92"/>
<text x="889.3" y="320.1" font-size="10" text-anchor="middle" fill="#555" font-weight="normal">16</text>
<rect x="902.4" y="238.4" width="26.8" height="251.6" fill="url(#solar)" stroke="#faf7f2" stroke-width="1" opacity="0.92"/>
<text x="915.8" y="233.4" font-size="10" text-anchor="middle" fill="#555" font-weight="normal">17</text>
<rect x="929.2" y="213.0" width="26.1" height="277.0" fill="url(#solar)" stroke="#faf7f2" stroke-width="1" opacity="0.92"/>
<text x="942.3" y="208.0" font-size="10" text-anchor="middle" fill="#555" font-weight="normal">18</text>
<rect x="955.3" y="129.0" width="27.0" height="361.0" fill="url(#solar-peak)" stroke="#faf7f2" stroke-width="1" opacity="0.92"/>
<text x="968.8" y="124.0" font-size="10" text-anchor="middle" fill="#555" font-weight="bold">19</text>
<rect x="982.3" y="291.6" width="30.0" height="198.4" fill="url(#solar)" stroke="#faf7f2" stroke-width="1" opacity="0.92"/>
<text x="997.3" y="286.6" font-size="10" text-anchor="middle" fill="#555" font-weight="normal">20</text>
<rect x="1012.3" y="195.0" width="26.4" height="295.0" fill="url(#solar)" stroke="#faf7f2" stroke-width="1" opacity="0.92"/>
<text x="1025.5" y="190.0" font-size="10" text-anchor="middle" fill="#555" font-weight="normal">21</text>
<rect x="1038.7" y="220.8" width="25.5" height="269.2" fill="url(#solar)" stroke="#faf7f2" stroke-width="1" opacity="0.92"/>
<text x="1051.4" y="215.8" font-size="10" text-anchor="middle" fill="#555" font-weight="normal">22</text>
<rect x="1064.2" y="261.6" width="31.7" height="228.4" fill="url(#solar)" stroke="#faf7f2" stroke-width="1" opacity="0.92"/>
<text x="1080.0" y="256.6" font-size="10" text-anchor="middle" fill="#555" font-weight="normal">23</text>
<rect x="1095.9" y="342.6" width="28.3" height="147.4" fill="url(#solar)" stroke="#faf7f2" stroke-width="1" opacity="0.92"/>
<text x="1110.0" y="337.6" font-size="10" text-anchor="middle" fill="#555" font-weight="normal">24</text>
<rect x="1124.2" y="285.4" width="19.7" height="204.6" fill="url(#solar)" stroke="#faf7f2" stroke-width="1" opacity="0.65"/>
<text x="1134.0" y="280.4" font-size="10" text-anchor="middle" fill="#555" font-weight="normal">25</text>
<line x1="964.3" y1="129.0" x2="1064.3" y2="104.0" stroke="#c0392b" stroke-width="1.2" stroke-dasharray="3,2"/>
<text x="1064.3" y="89.0" font-size="12" fill="#c0392b" font-weight="bold">SC19 — 1957</text>
<text x="1064.3" y="103.0" font-size="11" fill="#c0392b">peak SSN 285</text>
<text x="1064.3" y="117.0" font-size="10" fill="#999">largest cycle observed</text>
<text x="70" y="525" font-size="10" fill="#777">Major storms:</text>
<circle cx="712.0" cy="535" r="5" fill="#c0392b" opacity="0.9"/>
<circle cx="744.0" cy="535" r="5" fill="#c0392b" opacity="0.9"/>
<circle cx="870.6" cy="535" r="5" fill="#c0392b" opacity="0.9"/>
<circle cx="919.2" cy="535" r="3.5" fill="#888" opacity="0.9"/>
<circle cx="960.1" cy="535" r="3.5" fill="#888" opacity="0.9"/>
<circle cx="1002.4" cy="535" r="3.5" fill="#888" opacity="0.9"/>
<circle cx="1045.1" cy="535" r="3.5" fill="#888" opacity="0.9"/>
<circle cx="1074.2" cy="535" r="3.5" fill="#888" opacity="0.9"/>
<circle cx="1082.6" cy="535" r="3.5" fill="#888" opacity="0.9"/>
<circle cx="1087.5" cy="535" r="3.5" fill="#888" opacity="0.9"/>
<circle cx="1105.1" cy="535" r="5" fill="#c0392b" opacity="0.9"/>
<circle cx="1118.3" cy="535" r="3.5" fill="#888" opacity="0.9"/>
<circle cx="1135.5" cy="535" r="3.5" fill="#888" opacity="0.9"/>
<circle cx="1136.6" cy="535" r="3.5" fill="#888" opacity="0.9"/>
<text x="712.0" y="553" font-size="9" text-anchor="middle" fill="#555">Carrington 1859</text>
<text x="870.6" y="567" font-size="9" text-anchor="middle" fill="#555">NY Railroad 1921</text>
<text x="1045.1" y="553" font-size="9" text-anchor="middle" fill="#555">Quebec 1989</text>
<text x="1082.6" y="567" font-size="9" text-anchor="middle" fill="#555">Halloween 2003</text>
<text x="1135.5" y="553" font-size="9" text-anchor="middle" fill="#555">Gannon 2024</text>
<text x="70" y="580" font-size="11" fill="#666">Sources: SIDC-SILSO (cycles), hand-curated grand minima and historical storms — see data/ for the full record and docs/ANALYSIS.md for per-cycle statistics.</text>
</svg>
