<?xml version="1.0" encoding="UTF-8"?>
<svg xmlns="http://www.w3.org/2000/svg" viewBox="0 0 1200 620" font-family="-apple-system, BlinkMacSystemFont, 'Segoe UI', Helvetica, Arial, sans-serif">
<defs>
<linearGradient id="solarBand" x1="0" y1="0" x2="0" y2="1"><stop offset="0%" stop-color="#f5b942"/><stop offset="100%" stop-color="#d66200"/></linearGradient>
<linearGradient id="solarPeak" x1="0" y1="0" x2="0" y2="1"><stop offset="0%" stop-color="#ff6b35"/><stop offset="100%" stop-color="#c0392b"/></linearGradient>
</defs>
<rect width="1200" height="620" fill="#faf7f2"/>
<text x="70" y="52" font-family="Georgia, serif" font-size="34" font-weight="bold" fill="#1a1a1a">HelioChronicles</text>
<text x="70" y="78" font-size="14" fill="#555">The known history of the Sun — from Assyrian cuneiform aurora records (660 BCE) to today's 25th numbered cycle</text>
<text x="70" y="120" font-size="13" font-weight="600" fill="#222">2,500 years of solar activity</text>
<text x="1150" y="120" font-size="11" fill="#888" text-anchor="end">1000 BCE → today</text>
<rect x="70" y="160" width="1080" height="118" fill="#f3ede2" stroke="#e8ddc8" stroke-width="0.5"/>
<rect x="786.4" y="160" width="14.3" height="118" fill="#2c3e50" opacity="0.12"/>
<text x="793.6" y="274" font-size="9" text-anchor="middle" fill="#555" font-style="italic">Oort</text>
<rect x="882.7" y="160" width="25.0" height="118" fill="#2c3e50" opacity="0.12"/>
<text x="895.1" y="274" font-size="9" text-anchor="middle" fill="#555" font-style="italic">Wolf</text>
<rect x="946.8" y="160" width="32.1" height="118" fill="#2c3e50" opacity="0.12"/>
<text x="962.9" y="274" font-size="9" text-anchor="middle" fill="#555" font-style="italic">Spörer</text>
<rect x="1012.8" y="160" width="25.0" height="118" fill="#2c3e50" opacity="0.12"/>
<text x="1025.2" y="274" font-size="9" text-anchor="middle" fill="#555" font-style="italic">Maunder</text>
<rect x="1064.5" y="160" width="14.3" height="118" fill="#2c3e50" opacity="0.12"/>
<text x="1071.6" y="274" font-size="9" text-anchor="middle" fill="#555" font-style="italic">Dalton</text>
<rect x="1100.1" y="160" width="10.7" height="118" fill="#2c3e50" opacity="0.12"/>
<text x="1105.4" y="274" font-size="9" text-anchor="middle" fill="#555" font-style="italic">Gleissberg</text>
<rect x="1052.0" y="176" width="98.0" height="86" fill="url(#solarBand)" opacity="0.85"/>
<line x1="1052.0" y1="176" x2="1052.0" y2="262" stroke="#a84700" stroke-width="0.5" opacity="0.4"/>
<line x1="1056.1" y1="176" x2="1056.1" y2="262" stroke="#a84700" stroke-width="0.5" opacity="0.4"/>
<line x1="1059.3" y1="176" x2="1059.3" y2="262" stroke="#a84700" stroke-width="0.5" opacity="0.4"/>
<line x1="1062.6" y1="176" x2="1062.6" y2="262" stroke="#a84700" stroke-width="0.5" opacity="0.4"/>
<line x1="1067.4" y1="176" x2="1067.4" y2="262" stroke="#a84700" stroke-width="0.5" opacity="0.4"/>
<line x1="1071.8" y1="176" x2="1071.8" y2="262" stroke="#a84700" stroke-width="0.5" opacity="0.4"/>
<line x1="1076.4" y1="176" x2="1076.4" y2="262" stroke="#a84700" stroke-width="0.5" opacity="0.4"/>
<line x1="1080.1" y1="176" x2="1080.1" y2="262" stroke="#a84700" stroke-width="0.5" opacity="0.4"/>
<line x1="1083.5" y1="176" x2="1083.5" y2="262" stroke="#a84700" stroke-width="0.5" opacity="0.4"/>
<line x1="1088.0" y1="176" x2="1088.0" y2="262" stroke="#a84700" stroke-width="0.5" opacity="0.4"/>
<line x1="1092.0" y1="176" x2="1092.0" y2="262" stroke="#a84700" stroke-width="0.5" opacity="0.4"/>
<line x1="1096.2" y1="176" x2="1096.2" y2="262" stroke="#a84700" stroke-width="0.5" opacity="0.4"/>
<line x1="1100.2" y1="176" x2="1100.2" y2="262" stroke="#a84700" stroke-width="0.5" opacity="0.4"/>
<line x1="1104.4" y1="176" x2="1104.4" y2="262" stroke="#a84700" stroke-width="0.5" opacity="0.4"/>
<line x1="1108.5" y1="176" x2="1108.5" y2="262" stroke="#a84700" stroke-width="0.5" opacity="0.4"/>
<line x1="1112.1" y1="176" x2="1112.1" y2="262" stroke="#a84700" stroke-width="0.5" opacity="0.4"/>
<line x1="1115.7" y1="176" x2="1115.7" y2="262" stroke="#a84700" stroke-width="0.5" opacity="0.4"/>
<line x1="1119.4" y1="176" x2="1119.4" y2="262" stroke="#a84700" stroke-width="0.5" opacity="0.4"/>
<line x1="1123.0" y1="176" x2="1123.0" y2="262" stroke="#a84700" stroke-width="0.5" opacity="0.4"/>
<line x1="1126.8" y1="176" x2="1126.8" y2="262" stroke="#a84700" stroke-width="0.5" opacity="0.4"/>
<line x1="1130.9" y1="176" x2="1130.9" y2="262" stroke="#a84700" stroke-width="0.5" opacity="0.4"/>
<line x1="1134.6" y1="176" x2="1134.6" y2="262" stroke="#a84700" stroke-width="0.5" opacity="0.4"/>
<line x1="1138.1" y1="176" x2="1138.1" y2="262" stroke="#a84700" stroke-width="0.5" opacity="0.4"/>
<line x1="1142.5" y1="176" x2="1142.5" y2="262" stroke="#a84700" stroke-width="0.5" opacity="0.4"/>
<line x1="1146.4" y1="176" x2="1146.4" y2="262" stroke="#a84700" stroke-width="0.5" opacity="0.4"/>
<text x="1101.0" y="222.0" font-size="9" text-anchor="middle" fill="#4a1d00" font-weight="600">25 numbered cycles</text>
<circle cx="78.2" cy="140" r="2.5" fill="none" stroke="#1a5490" stroke-width="1"/>
<circle cx="191.2" cy="140" r="3" fill="#1a5490" stroke="#1a5490" stroke-width="1"/>
<circle cx="260.0" cy="140" r="2.5" fill="none" stroke="#1a5490" stroke-width="1"/>
<circle cx="439.6" cy="140" r="2.5" fill="none" stroke="#1a5490" stroke-width="1"/>
<circle cx="647.4" cy="140" r="3" fill="#1a5490" stroke="#1a5490" stroke-width="1"/>
<circle cx="703.0" cy="140" r="3" fill="#1a5490" stroke="#1a5490" stroke-width="1"/>
<circle cx="786.8" cy="140" r="3" fill="#1a5490" stroke="#1a5490" stroke-width="1"/>
<circle cx="851.3" cy="140" r="3" fill="#1a5490" stroke="#1a5490" stroke-width="1"/>
<circle cx="926.2" cy="140" r="3" fill="#1a5490" stroke="#1a5490" stroke-width="1"/>
<circle cx="989.6" cy="140" r="3" fill="#1a5490" stroke="#1a5490" stroke-width="1"/>
<circle cx="1038.1" cy="140" r="3" fill="#1a5490" stroke="#1a5490" stroke-width="1"/>
<circle cx="1057.3" cy="140" r="3" fill="#1a5490" stroke="#1a5490" stroke-width="1"/>
<circle cx="1058.8" cy="140" r="3" fill="#1a5490" stroke="#1a5490" stroke-width="1"/>
<circle cx="1081.9" cy="140" r="3" fill="#1a5490" stroke="#1a5490" stroke-width="1"/>
<circle cx="1084.8" cy="140" r="3" fill="#1a5490" stroke="#1a5490" stroke-width="1"/>
<text x="64" y="143" font-size="9" fill="#1a5490" text-anchor="end" font-weight="600">Aurora records</text>
<text x="191.2" y="130" font-size="9" text-anchor="middle" fill="#1a5490">Assyrian tablets</text>
<text x="260.0" y="118" font-size="9" text-anchor="middle" fill="#1a5490">Aristotle</text>
<text x="703.0" y="130" font-size="9" text-anchor="middle" fill="#1a5490">776 CE</text>
<text x="1038.1" y="118" font-size="9" text-anchor="middle" fill="#1a5490">Halley 1716</text>
<text x="1057.3" y="130" font-size="9" text-anchor="middle" fill="#1a5490">1770 extreme</text>
<circle cx="1089.3" cy="296" r="4" fill="#c0392b" opacity="0.9"/>
<circle cx="1093.7" cy="296" r="4" fill="#c0392b" opacity="0.9"/>
<circle cx="1111.3" cy="296" r="4" fill="#c0392b" opacity="0.9"/>
<circle cx="1118.0" cy="296" r="3" fill="#888" opacity="0.9"/>
<circle cx="1123.7" cy="296" r="3" fill="#888" opacity="0.9"/>
<circle cx="1129.5" cy="296" r="3" fill="#888" opacity="0.9"/>
<circle cx="1135.5" cy="296" r="3" fill="#888" opacity="0.9"/>
<circle cx="1139.5" cy="296" r="3" fill="#888" opacity="0.9"/>
<circle cx="1140.7" cy="296" r="3" fill="#888" opacity="0.9"/>
<circle cx="1141.3" cy="296" r="3" fill="#888" opacity="0.9"/>
<circle cx="1143.8" cy="296" r="4" fill="#c0392b" opacity="0.9"/>
<circle cx="1145.6" cy="296" r="3" fill="#888" opacity="0.9"/>
<circle cx="1148.0" cy="296" r="3" fill="#888" opacity="0.9"/>
<circle cx="1148.1" cy="296" r="3" fill="#888" opacity="0.9"/>
<text x="64" y="299" font-size="9" fill="#c0392b" text-anchor="end" font-weight="600">Major storms</text>
<line x1="70.0" y1="312" x2="70.0" y2="316" stroke="#888" stroke-width="0.5"/>
<text x="70.0" y="324" font-size="9" text-anchor="middle" fill="#777">1000 BCE</text>
<line x1="248.2" y1="312" x2="248.2" y2="316" stroke="#888" stroke-width="0.5"/>
<text x="248.2" y="324" font-size="9" text-anchor="middle" fill="#777">500 BCE</text>
<line x1="426.4" y1="312" x2="426.4" y2="316" stroke="#888" stroke-width="0.5"/>
<text x="426.4" y="324" font-size="9" text-anchor="middle" fill="#777">0 CE</text>
<line x1="604.7" y1="312" x2="604.7" y2="316" stroke="#888" stroke-width="0.5"/>
<text x="604.7" y="324" font-size="9" text-anchor="middle" fill="#777">500 CE</text>
<line x1="782.9" y1="312" x2="782.9" y2="316" stroke="#888" stroke-width="0.5"/>
<text x="782.9" y="324" font-size="9" text-anchor="middle" fill="#777">1000 CE</text>
<line x1="961.1" y1="312" x2="961.1" y2="316" stroke="#888" stroke-width="0.5"/>
<text x="961.1" y="324" font-size="9" text-anchor="middle" fill="#777">1500 CE</text>
<line x1="1139.3" y1="312" x2="1139.3" y2="316" stroke="#888" stroke-width="0.5"/>
<text x="1139.3" y="324" font-size="9" text-anchor="middle" fill="#777">2000 CE</text>
<text x="70" y="348" font-size="13" font-weight="600" fill="#222">The 25 numbered cycles</text>
<text x="1150" y="348" font-size="11" fill="#888" text-anchor="end">Peak smoothed SSN at each cycle maximum</text>
<rect x="70" y="364" width="1080" height="182" fill="#fbf8f2" stroke="#e8ddc8" stroke-width="0.5"/>
<line x1="70" y1="485.3" x2="1150" y2="485.3" stroke="#aaa" stroke-width="0.5" stroke-dasharray="2,3" opacity="0.5"/>
<text x="62" y="488.3" font-size="10" fill="#666" text-anchor="end">100</text>
<line x1="70" y1="424.7" x2="1150" y2="424.7" stroke="#aaa" stroke-width="0.5" stroke-dasharray="2,3" opacity="0.5"/>
<text x="62" y="427.7" font-size="10" fill="#666" text-anchor="end">200</text>
<line x1="70" y1="364.0" x2="1150" y2="364.0" stroke="#aaa" stroke-width="0.5" stroke-dasharray="2,3" opacity="0.5"/>
<text x="62" y="367.0" font-size="10" fill="#666" text-anchor="end">300</text>
<line x1="70" y1="437.6" x2="1150" y2="437.6" stroke="#2c3e50" stroke-width="0.8" stroke-dasharray="4,3" opacity="0.45"/>
<text x="1154" y="440.6" font-size="9" fill="#2c3e50" opacity="0.7">mean 179</text>
<rect x="364.5" y="364" width="130.9" height="182" fill="#2c3e50" opacity="0.07"/>
<text x="430.0" y="376" font-size="9" text-anchor="middle" fill="#555" font-style="italic">Dalton</text>
<polygon points="250.4,546.0 271.1,458.6 287.5,546.0" fill="url(#solarBand)" opacity="0.88" stroke="#faf7f2" stroke-width="0.8"/>
<text x="271.1" y="454.6" font-size="9" text-anchor="middle" fill="#555" font-weight="normal">1</text>
<polygon points="287.5,546.0 298.1,428.9 317.0,546.0" fill="url(#solarBand)" opacity="0.88" stroke="#faf7f2" stroke-width="0.8"/>
<text x="298.1" y="424.9" font-size="9" text-anchor="middle" fill="#555" font-weight="normal">2</text>
<polygon points="317.0,546.0 326.5,385.7 347.2,546.0" fill="url(#solarBand)" opacity="0.88" stroke="#faf7f2" stroke-width="0.8"/>
<text x="326.5" y="381.7" font-size="9" text-anchor="middle" fill="#555" font-weight="normal">3</text>
<polygon points="347.2,546.0 358.4,403.3 392.0,546.0" fill="url(#solarBand)" opacity="0.88" stroke="#faf7f2" stroke-width="0.8"/>
<text x="358.4" y="399.3" font-size="9" text-anchor="middle" fill="#555" font-weight="normal">4</text>
<polygon points="392.0,546.0 414.0,496.3 432.0,546.0" fill="url(#solarBand)" opacity="0.88" stroke="#faf7f2" stroke-width="0.8"/>
<polygon points="432.0,546.0 450.9,496.7 473.8,546.0" fill="url(#solarBand)" opacity="0.88" stroke="#faf7f2" stroke-width="0.8"/>
<polygon points="473.8,546.0 495.0,473.7 508.1,546.0" fill="url(#solarBand)" opacity="0.88" stroke="#faf7f2" stroke-width="0.8"/>
<polygon points="508.1,546.0 519.0,397.4 539.8,546.0" fill="url(#solarBand)" opacity="0.88" stroke="#faf7f2" stroke-width="0.8"/>
<text x="519.0" y="393.4" font-size="9" text-anchor="middle" fill="#555" font-weight="normal">8</text>
<polygon points="539.8,546.0 554.8,412.6 580.4,546.0" fill="url(#solarBand)" opacity="0.88" stroke="#faf7f2" stroke-width="0.8"/>
<text x="554.8" y="408.6" font-size="9" text-anchor="middle" fill="#555" font-weight="normal">9</text>
<polygon points="580.4,546.0 594.0,433.0 617.2,546.0" fill="url(#solarBand)" opacity="0.88" stroke="#faf7f2" stroke-width="0.8"/>
<text x="594.0" y="429.0" font-size="9" text-anchor="middle" fill="#555" font-weight="normal">10</text>
<polygon points="617.2,546.0 628.4,404.0 655.7,546.0" fill="url(#solarBand)" opacity="0.88" stroke="#faf7f2" stroke-width="0.8"/>
<text x="628.4" y="400.0" font-size="9" text-anchor="middle" fill="#555" font-weight="normal">11</text>
<polygon points="655.7,546.0 672.0,470.5 692.5,546.0" fill="url(#solarBand)" opacity="0.88" stroke="#faf7f2" stroke-width="0.8"/>
<text x="672.0" y="466.5" font-size="9" text-anchor="middle" fill="#555" font-weight="normal">12</text>
<polygon points="692.5,546.0 705.0,457.1 731.2,546.0" fill="url(#solarBand)" opacity="0.88" stroke="#faf7f2" stroke-width="0.8"/>
<text x="705.0" y="453.1" font-size="9" text-anchor="middle" fill="#555" font-weight="normal">13</text>
<polygon points="731.2,546.0 744.6,481.0 768.9,546.0" fill="url(#solarBand)" opacity="0.88" stroke="#faf7f2" stroke-width="0.8"/>
<polygon points="768.9,546.0 782.2,439.4 801.6,546.0" fill="url(#solarBand)" opacity="0.88" stroke="#faf7f2" stroke-width="0.8"/>
<text x="782.2" y="435.4" font-size="9" text-anchor="middle" fill="#555" font-weight="normal">15</text>
<polygon points="801.6,546.0 817.1,467.0 834.9,546.0" fill="url(#solarBand)" opacity="0.88" stroke="#faf7f2" stroke-width="0.8"/>
<text x="817.1" y="463.0" font-size="9" text-anchor="middle" fill="#555" font-weight="normal">16</text>
<polygon points="834.9,546.0 846.6,425.5 869.0,546.0" fill="url(#solarBand)" opacity="0.88" stroke="#faf7f2" stroke-width="0.8"/>
<text x="846.6" y="421.5" font-size="9" text-anchor="middle" fill="#555" font-weight="normal">17</text>
<polygon points="869.0,546.0 879.6,413.3 902.2,546.0" fill="url(#solarBand)" opacity="0.88" stroke="#faf7f2" stroke-width="0.8"/>
<text x="879.6" y="409.3" font-size="9" text-anchor="middle" fill="#555" font-weight="normal">18</text>
<polygon points="902.2,546.0 913.7,373.1 936.6,546.0" fill="url(#solarPeak)" opacity="0.88" stroke="#faf7f2" stroke-width="0.8"/>
<text x="913.7" y="369.1" font-size="9" text-anchor="middle" fill="#c0392b" font-weight="bold">19</text>
<polygon points="936.6,546.0 950.0,451.0 974.8,546.0" fill="url(#solarBand)" opacity="0.88" stroke="#faf7f2" stroke-width="0.8"/>
<text x="950.0" y="447.0" font-size="9" text-anchor="middle" fill="#555" font-weight="normal">20</text>
<polygon points="974.8,546.0 986.2,404.7 1008.3,546.0" fill="url(#solarBand)" opacity="0.88" stroke="#faf7f2" stroke-width="0.8"/>
<text x="986.2" y="400.7" font-size="9" text-anchor="middle" fill="#555" font-weight="normal">21</text>
<polygon points="1008.3,546.0 1017.6,417.1 1040.8,546.0" fill="url(#solarBand)" opacity="0.88" stroke="#faf7f2" stroke-width="0.8"/>
<text x="1017.6" y="413.1" font-size="9" text-anchor="middle" fill="#555" font-weight="normal">22</text>
<polygon points="1040.8,546.0 1058.0,436.6 1081.1,546.0" fill="url(#solarBand)" opacity="0.88" stroke="#faf7f2" stroke-width="0.8"/>
<text x="1058.0" y="432.6" font-size="9" text-anchor="middle" fill="#555" font-weight="normal">23</text>
<polygon points="1081.1,546.0 1098.6,475.4 1117.1,546.0" fill="url(#solarBand)" opacity="0.88" stroke="#faf7f2" stroke-width="0.8"/>
<text x="1098.6" y="471.4" font-size="9" text-anchor="middle" fill="#555" font-weight="normal">24</text>
<polygon points="1117.1,546.0 1132.4,448.0 1142.2,546.0" fill="url(#solarBand)" opacity="0.6" stroke="#faf7f2" stroke-width="0.8"/>
<text x="1132.4" y="444.0" font-size="9" text-anchor="middle" fill="#555" font-weight="normal">25</text>
<line x1="916.7" y1="373.1" x2="993.7" y2="378.1" stroke="#c0392b" stroke-width="1" stroke-dasharray="2,2" opacity="0.8"/>
<text x="993.7" y="381.1" font-size="10" fill="#c0392b" font-weight="bold">SC19 · 1957</text>
<text x="993.7" y="393.1" font-size="9" fill="#c0392b">peak SSN 285, biggest on record</text>
<line x1="70" y1="546" x2="1150" y2="546" stroke="#333" stroke-width="1"/>
<line x1="70.0" y1="546" x2="70.0" y2="551.0" stroke="#333" stroke-width="0.8"/>
<text x="70.0" y="564.0" font-size="10" text-anchor="middle" fill="#333">1700</text>
<line x1="233.6" y1="546" x2="233.6" y2="551.0" stroke="#333" stroke-width="0.8"/>
<text x="233.6" y="564.0" font-size="10" text-anchor="middle" fill="#333">1750</text>
<line x1="397.3" y1="546" x2="397.3" y2="551.0" stroke="#333" stroke-width="0.8"/>
<text x="397.3" y="564.0" font-size="10" text-anchor="middle" fill="#333">1800</text>
<line x1="560.9" y1="546" x2="560.9" y2="551.0" stroke="#333" stroke-width="0.8"/>
<text x="560.9" y="564.0" font-size="10" text-anchor="middle" fill="#333">1850</text>
<line x1="724.5" y1="546" x2="724.5" y2="551.0" stroke="#333" stroke-width="0.8"/>
<text x="724.5" y="564.0" font-size="10" text-anchor="middle" fill="#333">1900</text>
<line x1="888.2" y1="546" x2="888.2" y2="551.0" stroke="#333" stroke-width="0.8"/>
<text x="888.2" y="564.0" font-size="10" text-anchor="middle" fill="#333">1950</text>
<line x1="1051.8" y1="546" x2="1051.8" y2="551.0" stroke="#333" stroke-width="0.8"/>
<text x="1051.8" y="564.0" font-size="10" text-anchor="middle" fill="#333">2000</text>
<text x="28" y="455.0" font-size="10" fill="#555" transform="rotate(-90 28 455.0)" text-anchor="middle">Peak SSN (smoothed V2.0)</text>
<text x="70" y="606" font-size="11" fill="#666">Sources: SIDC-SILSO (cycles), peer-reviewed paleoaurora literature (Stephenson 2004, Hayakawa 2017), curated grand minima and historical storms — see data/ and docs/ANALYSIS.md for the full record.</text>
</svg>
