<?xml version="1.0" encoding="UTF-8"?>
<svg xmlns="http://www.w3.org/2000/svg" viewBox="0 0 1200 480" font-family="-apple-system, BlinkMacSystemFont, 'Segoe UI', Helvetica, Arial, sans-serif">
<rect width="1200" height="480" fill="#faf7f2"/>
<text x="80" y="50" font-family="Georgia, serif" font-size="26" font-weight="bold" fill="#1a1a1a">The storms we have records of</text>
<text x="80" y="74" font-size="13" fill="#555">Geomagnetic storms 1859 → today, ranked by depth of the Dst index. Lower = worse.</text>
<text x="1140" y="90" font-size="10" fill="#444" text-anchor="end">estimated — hypothetical hit</text>
<rect x="968" y="81" width="12" height="12" fill="#2c7fb8" opacity="0.9"/>
<text x="950" y="90" font-size="10" fill="#444" text-anchor="end">reconstructed (pre-1957 magnetograms)</text>
<rect x="728" y="81" width="12" height="12" fill="#7f8c8d" opacity="0.9"/>
<text x="710" y="90" font-size="10" fill="#444" text-anchor="end">measured (1957+, Kyoto WDC)</text>
<rect x="543" y="81" width="12" height="12" fill="#c0392b" opacity="0.9"/>
<line x1="80" y1="100" x2="1140" y2="100" stroke="#333" stroke-width="1.2"/>
<text x="1144" y="104" font-size="10" fill="#555">Dst = 0</text>
<line x1="80" y1="123.2" x2="1140" y2="123.2" stroke="#aaa" stroke-width="0.5" stroke-dasharray="2,3" opacity="0.5"/>
<text x="72" y="126.2" font-size="10" fill="#555" text-anchor="end">−100</text>
<line x1="80" y1="146.4" x2="1140" y2="146.4" stroke="#aaa" stroke-width="0.5" stroke-dasharray="2,3" opacity="0.5"/>
<text x="72" y="149.4" font-size="10" fill="#555" text-anchor="end">−200</text>
<line x1="80" y1="192.8" x2="1140" y2="192.8" stroke="#aaa" stroke-width="0.5" stroke-dasharray="2,3" opacity="0.5"/>
<text x="72" y="195.8" font-size="10" fill="#555" text-anchor="end">−400</text>
<line x1="80" y1="239.2" x2="1140" y2="239.2" stroke="#aaa" stroke-width="0.5" stroke-dasharray="2,3" opacity="0.5"/>
<text x="72" y="242.2" font-size="10" fill="#555" text-anchor="end">−600</text>
<line x1="80" y1="285.6" x2="1140" y2="285.6" stroke="#aaa" stroke-width="0.5" stroke-dasharray="2,3" opacity="0.5"/>
<text x="72" y="288.6" font-size="10" fill="#555" text-anchor="end">−800</text>
<line x1="80" y1="332.0" x2="1140" y2="332.0" stroke="#aaa" stroke-width="0.5" stroke-dasharray="2,3" opacity="0.5"/>
<text x="72" y="335.0" font-size="10" fill="#555" text-anchor="end">−1000</text>
<line x1="80" y1="378.4" x2="1140" y2="378.4" stroke="#aaa" stroke-width="0.5" stroke-dasharray="2,3" opacity="0.5"/>
<text x="72" y="381.4" font-size="10" fill="#555" text-anchor="end">−1200</text>
<text x="28" y="245.0" font-size="11" fill="#555" transform="rotate(-90 28 245.0)" text-anchor="middle">Minimum Dst during event (nT)</text>
<text x="1144" y="126.2" font-size="9" fill="#888" font-style="italic">strong (G3)</text>
<text x="1144" y="149.4" font-size="9" fill="#888" font-style="italic">severe (G4)</text>
<text x="1144" y="195.8" font-size="9" fill="#888" font-style="italic">extreme (G5)</text>
<text x="1144" y="288.6" font-size="9" fill="#888" font-style="italic">Carrington-class</text>
<rect x="103.3" y="100.0" width="10" height="208.8" fill="#7f8c8d" opacity="0.92" rx="1.5"/>
<text x="108.3" y="320.8" font-size="10" text-anchor="middle" fill="#555" font-weight="bold">−900</text>
<rect x="178.5" y="100.0" width="10" height="192.6" fill="#7f8c8d" opacity="0.92" rx="1.5"/>
<text x="183.5" y="304.6" font-size="10" text-anchor="middle" fill="#555" font-weight="bold">−830</text>
<rect x="477.0" y="100.0" width="10" height="210.4" fill="#7f8c8d" opacity="0.92" rx="1.5"/>
<text x="482.0" y="322.4" font-size="10" text-anchor="middle" fill="#555" font-weight="bold">−907</text>
<rect x="591.2" y="100.0" width="10" height="90.2" fill="#7f8c8d" opacity="0.92" rx="1.5"/>
<rect x="787.2" y="100.0" width="10" height="29.0" fill="#c0392b" opacity="0.92" rx="1.5"/>
<rect x="887.8" y="100.0" width="10" height="136.6" fill="#c0392b" opacity="0.92" rx="1.5"/>
<text x="892.8" y="248.6" font-size="10" text-anchor="middle" fill="#c0392b" font-weight="bold">−589</text>
<rect x="956.5" y="100.0" width="10" height="69.8" fill="#c0392b" opacity="0.92" rx="1.5"/>
<rect x="976.3" y="100.0" width="10" height="88.9" fill="#c0392b" opacity="0.92" rx="1.5"/>
<rect x="987.7" y="100.0" width="10" height="32.2" fill="#c0392b" opacity="0.92" rx="1.5"/>
<rect x="1029.3" y="100.0" width="10" height="278.4" fill="#2c7fb8" opacity="0.92" rx="1.5"/>
<text x="1034.3" y="390.4" font-size="10" text-anchor="middle" fill="#1f4e79" font-weight="bold">−1200</text>
<rect x="1060.4" y="100.0" width="10" height="32.9" fill="#c0392b" opacity="0.92" rx="1.5"/>
<rect x="1100.8" y="100.0" width="10" height="95.6" fill="#c0392b" opacity="0.92" rx="1.5"/>
<rect x="1103.3" y="100.0" width="10" height="77.7" fill="#c0392b" opacity="0.92" rx="1.5"/>
<line x1="108.3" y1="62" x2="108.3" y2="92" stroke="#999" stroke-width="0.5" stroke-dasharray="2,2"/>
<text x="112.3" y="54" font-size="10" fill="#555" font-weight="bold" text-anchor="start">Carrington Event</text>
<line x1="183.5" y1="78" x2="183.5" y2="92" stroke="#999" stroke-width="0.5" stroke-dasharray="2,2"/>
<text x="187.5" y="70" font-size="10" fill="#555" font-weight="bold" text-anchor="start">Great Magnetic Storm of February 1872</text>
<line x1="482.0" y1="62" x2="482.0" y2="92" stroke="#999" stroke-width="0.5" stroke-dasharray="2,2"/>
<text x="486.0" y="54" font-size="10" fill="#555" font-weight="bold" text-anchor="start">New York Railroad Storm</text>
<line x1="892.8" y1="78" x2="892.8" y2="92" stroke="#999" stroke-width="0.5" stroke-dasharray="2,2"/>
<text x="888.8" y="70" font-size="10" fill="#c0392b" font-weight="bold" text-anchor="end">Quebec Blackout Storm</text>
<line x1="1034.3" y1="62" x2="1034.3" y2="92" stroke="#999" stroke-width="0.5" stroke-dasharray="2,2"/>
<text x="1030.3" y="54" font-size="10" fill="#1f4e79" font-weight="bold" text-anchor="end">July 2012 Near-Miss CME</text>
<text x="1105.8" y="221.6" font-size="10" fill="#c0392b" text-anchor="end" font-weight="bold">Gannon 2024</text>
<text x="1105.8" y="233.6" font-size="9" fill="#888" text-anchor="end">first G5 since Halloween 2003</text>
<line x1="80" y1="390" x2="1140" y2="390" stroke="#333" stroke-width="0.8" opacity="0.4"/>
<line x1="110.3" y1="390" x2="110.3" y2="395" stroke="#333" stroke-width="0.8"/>
<text x="110.3" y="408" font-size="10" text-anchor="middle" fill="#333">1860</text>
<line x1="231.4" y1="390" x2="231.4" y2="395" stroke="#333" stroke-width="0.8"/>
<text x="231.4" y="408" font-size="10" text-anchor="middle" fill="#333">1880</text>
<line x1="352.6" y1="390" x2="352.6" y2="395" stroke="#333" stroke-width="0.8"/>
<text x="352.6" y="408" font-size="10" text-anchor="middle" fill="#333">1900</text>
<line x1="473.7" y1="390" x2="473.7" y2="395" stroke="#333" stroke-width="0.8"/>
<text x="473.7" y="408" font-size="10" text-anchor="middle" fill="#333">1920</text>
<line x1="594.9" y1="390" x2="594.9" y2="395" stroke="#333" stroke-width="0.8"/>
<text x="594.9" y="408" font-size="10" text-anchor="middle" fill="#333">1940</text>
<line x1="716.0" y1="390" x2="716.0" y2="395" stroke="#333" stroke-width="0.8"/>
<text x="716.0" y="408" font-size="10" text-anchor="middle" fill="#333">1960</text>
<line x1="837.1" y1="390" x2="837.1" y2="395" stroke="#333" stroke-width="0.8"/>
<text x="837.1" y="408" font-size="10" text-anchor="middle" fill="#333">1980</text>
<line x1="958.3" y1="390" x2="958.3" y2="395" stroke="#333" stroke-width="0.8"/>
<text x="958.3" y="408" font-size="10" text-anchor="middle" fill="#333">2000</text>
<line x1="1079.4" y1="390" x2="1079.4" y2="395" stroke="#333" stroke-width="0.8"/>
<text x="1079.4" y="408" font-size="10" text-anchor="middle" fill="#333">2020</text>
<text x="80" y="460" font-size="11" fill="#666">14 events, hand-curated from peer-reviewed sources. Reconstructed pre-Dst values carry order-of-magnitude uncertainty; measured values (1957+) match Kyoto WDC within the ±5 nT integrity tolerance. See data/events/historical_storms.json for per-event sources.</text>
</svg>
