<?xml version="1.0" encoding="UTF-8"?>
<svg xmlns="http://www.w3.org/2000/svg" viewBox="0 0 1200 520" font-family="-apple-system, BlinkMacSystemFont, 'Segoe UI', Helvetica, Arial, sans-serif">
<rect width="1200" height="520" fill="#faf7f2"/>
<text x="96" y="48" font-family="Georgia, serif" font-size="28" font-weight="bold" fill="#1a1a1a">The storms we have records of</text>
<text x="96" y="74" font-size="13" fill="#555">Minimum Dst during each geomagnetic storm, 1859 → today. Bars hang down; lower = worse.</text>
<text x="96" y="104" font-size="12" font-weight="600" fill="#333">13 events · 8 measured · 4 reconstructed · 1 hypothetical</text>
<rect x="96" y="126" width="964" height="272" fill="#fbf8f2"/>
<line x1="96" y1="147.8" x2="1060" y2="147.8" stroke="#cfc4ae" stroke-width="0.5" stroke-dasharray="2,4"/>
<text x="86" y="151.8" font-size="10" text-anchor="end" fill="#666">−100</text>
<line x1="96" y1="191.3" x2="1060" y2="191.3" stroke="#cfc4ae" stroke-width="0.5" stroke-dasharray="2,4"/>
<text x="86" y="195.3" font-size="10" text-anchor="end" fill="#666">−300</text>
<line x1="96" y1="234.8" x2="1060" y2="234.8" stroke="#cfc4ae" stroke-width="0.5" stroke-dasharray="2,4"/>
<text x="86" y="238.8" font-size="10" text-anchor="end" fill="#666">−500</text>
<line x1="96" y1="300.1" x2="1060" y2="300.1" stroke="#cfc4ae" stroke-width="0.5" stroke-dasharray="2,4"/>
<text x="86" y="304.1" font-size="10" text-anchor="end" fill="#666">−800</text>
<line x1="96" y1="387.1" x2="1060" y2="387.1" stroke="#cfc4ae" stroke-width="0.5" stroke-dasharray="2,4"/>
<text x="86" y="391.1" font-size="10" text-anchor="end" fill="#666">−1200</text>
<text x="30" y="262.0" font-size="11" fill="#666" transform="rotate(-90 30 262.0)" text-anchor="middle">Minimum Dst (nT)</text>
<line x1="1060" y1="147.8" x2="1068" y2="147.8" stroke="#888" stroke-width="0.8"/>
<text x="1072" y="150.8" font-size="9" fill="#888" font-style="italic">G3 strong</text>
<line x1="1060" y1="169.5" x2="1068" y2="169.5" stroke="#888" stroke-width="0.8"/>
<text x="1072" y="172.5" font-size="9" fill="#888" font-style="italic">G4 severe</text>
<line x1="1060" y1="213.0" x2="1068" y2="213.0" stroke="#888" stroke-width="0.8"/>
<text x="1072" y="216.0" font-size="9" fill="#888" font-style="italic">G5 extreme</text>
<line x1="1060" y1="300.1" x2="1068" y2="300.1" stroke="#888" stroke-width="0.8"/>
<text x="1072" y="303.1" font-size="9" fill="#888" font-style="italic">Carrington-class</text>
<line x1="96" y1="126" x2="1060" y2="126" stroke="#222" stroke-width="1.2"/>
<text x="1072" y="130.0" font-size="10" fill="#222" font-weight="600">Dst = 0</text>
<rect x="117.7" y="126.0" width="8" height="195.8" fill="#7f8c8d" opacity="0.92" rx="1.5"><title>Carrington Event · 1859-09-01 · Dst -900 nT (reconstructed)</title></rect>
<rect x="186.2" y="126.0" width="8" height="180.6" fill="#7f8c8d" opacity="0.92" rx="1.5"><title>Great Magnetic Storm of February 1872 · 1872-02-04 · Dst -830 nT (reconstructed)</title></rect>
<rect x="457.6" y="126.0" width="8" height="197.4" fill="#7f8c8d" opacity="0.92" rx="1.5"><title>New York Railroad Storm · 1921-05-13 · Dst -907 nT (reconstructed)</title></rect>
<rect x="561.5" y="126.0" width="8" height="84.6" fill="#7f8c8d" opacity="0.92" rx="1.5"><title>Easter Sunday Storm · 1940-03-24 · Dst -389 nT (reconstructed)</title></rect>
<rect x="739.7" y="126.0" width="8" height="27.2" fill="#c0392b" opacity="0.92" rx="1.5"><title>August 1972 Event · 1972-08-02 · Dst -125 nT (measured)</title></rect>
<rect x="831.2" y="126.0" width="8" height="128.2" fill="#c0392b" opacity="0.92" rx="1.5"><title>Quebec Blackout Storm · 1989-03-10 · Dst -589 nT (measured)</title></rect>
<rect x="893.7" y="126.0" width="8" height="65.5" fill="#c0392b" opacity="0.92" rx="1.5"><title>Bastille Day Event · 2000-07-14 · Dst -301 nT (measured)</title></rect>
<rect x="911.7" y="126.0" width="8" height="83.3" fill="#c0392b" opacity="0.92" rx="1.5"><title>Halloween Storms · 2003-10-19 · Dst -383 nT (measured)</title></rect>
<rect x="922.0" y="126.0" width="8" height="30.2" fill="#c0392b" opacity="0.92" rx="1.5"><title>September 2005 X17 Flare Series · 2005-09-07 · Dst -139 nT (measured)</title></rect>
<rect x="959.9" y="126.0" width="8" height="261.1" fill="#2c7fb8" opacity="0.92" rx="1.5"><title>July 2012 Near-Miss CME · 2012-07-23 · Dst -1200 nT (estimated-hypothetical)</title></rect>
<rect x="988.1" y="126.0" width="8" height="30.9" fill="#c0392b" opacity="0.92" rx="1.5"><title>September 2017 Flares and Storm · 2017-09-06 · Dst -142 nT (measured)</title></rect>
<rect x="1024.9" y="126.0" width="8" height="89.7" fill="#c0392b" opacity="0.92" rx="1.5"><title>Gannon Storm (Mother's Day Storm) · 2024-05-10 · Dst -412 nT (measured)</title></rect>
<rect x="1027.2" y="126.0" width="8" height="72.9" fill="#c0392b" opacity="0.92" rx="1.5"><title>October 2024 G4 Storm · 2024-10-10 · Dst -335 nT (measured)</title></rect>
<line x1="96" y1="398" x2="1060" y2="398" stroke="#333" stroke-width="0.8" opacity="0.4"/>
<line x1="123.5" y1="398" x2="123.5" y2="403.0" stroke="#333" stroke-width="0.8"/>
<text x="123.5" y="416" font-size="10" text-anchor="middle" fill="#444">1860</text>
<line x1="233.7" y1="398" x2="233.7" y2="403.0" stroke="#333" stroke-width="0.8"/>
<text x="233.7" y="416" font-size="10" text-anchor="middle" fill="#444">1880</text>
<line x1="343.9" y1="398" x2="343.9" y2="403.0" stroke="#333" stroke-width="0.8"/>
<text x="343.9" y="416" font-size="10" text-anchor="middle" fill="#444">1900</text>
<line x1="454.1" y1="398" x2="454.1" y2="403.0" stroke="#333" stroke-width="0.8"/>
<text x="454.1" y="416" font-size="10" text-anchor="middle" fill="#444">1920</text>
<line x1="564.2" y1="398" x2="564.2" y2="403.0" stroke="#333" stroke-width="0.8"/>
<text x="564.2" y="416" font-size="10" text-anchor="middle" fill="#444">1940</text>
<line x1="674.4" y1="398" x2="674.4" y2="403.0" stroke="#333" stroke-width="0.8"/>
<text x="674.4" y="416" font-size="10" text-anchor="middle" fill="#444">1960</text>
<line x1="784.6" y1="398" x2="784.6" y2="403.0" stroke="#333" stroke-width="0.8"/>
<text x="784.6" y="416" font-size="10" text-anchor="middle" fill="#444">1980</text>
<line x1="894.7" y1="398" x2="894.7" y2="403.0" stroke="#333" stroke-width="0.8"/>
<text x="894.7" y="416" font-size="10" text-anchor="middle" fill="#444">2000</text>
<line x1="1004.9" y1="398" x2="1004.9" y2="403.0" stroke="#333" stroke-width="0.8"/>
<text x="1004.9" y="416" font-size="10" text-anchor="middle" fill="#444">2020</text>
<rect x="96" y="437" width="12" height="10" fill="#c0392b" opacity="0.92" rx="1.5"/>
<text x="114" y="446" font-size="10" fill="#555">measured (Kyoto WDC, 8)</text>
<rect x="272" y="437" width="12" height="10" fill="#7f8c8d" opacity="0.92" rx="1.5"/>
<text x="290" y="446" font-size="10" fill="#555">reconstructed (pre-1957, 4)</text>
<rect x="471" y="437" width="12" height="10" fill="#2c7fb8" opacity="0.92" rx="1.5"/>
<text x="489" y="446" font-size="10" fill="#555">hypothetical (2012 miss, 1)</text>
<text x="96" y="478" font-size="11" fill="#444" font-weight="600">Deepest 5:</text>
<text x="158" y="478" font-size="11" fill="#555">2012 near-miss (−1200)  ·  1921 NY Railroad (−907)  ·  1859 Carrington (−900)  ·  1872 February (−830)  ·  1989 Quebec (−589)</text>
<text x="96" y="504" font-size="10" fill="#888">Pre-1957 values reconstructed from magnetogram archives with order-of-magnitude uncertainty. Measured values (1957+) pulled from Kyoto WDC Dst via NASA OMNI. Hover a bar for event name and date; see data/events/historical_storms.json for sources.</text>
</svg>
